
<?xml version="1.0" encoding="UTF-8" standalone="no"?>
<!-- Created with Inkscape (http://www.inkscape.org/) -->

<svg
   width="59.001999mm"
   height="7.9369998mm"
   viewBox="0 0 59.002 7.9369999"
   version="1.1"
   id="svg1"
   xml:space="preserve"
   inkscape:version="1.4 (86a8ad7, 2024-10-11)"
   sodipodi:docname="wide-kofi-ar.svg"
   xmlns:inkscape="http://www.inkscape.org/namespaces/inkscape"
   xmlns:sodipodi="http://sodipodi.sourceforge.net/DTD/sodipodi-0.dtd"
   xmlns="http://www.w3.org/2000/svg"
   xmlns:svg="http://www.w3.org/2000/svg"><sodipodi:namedview
     id="namedview1"
     pagecolor="#505050"
     bordercolor="#ffffff"
     borderopacity="1"
     inkscape:showpageshadow="0"
     inkscape:pageopacity="0"
     inkscape:pagecheckerboard="1"
     inkscape:deskcolor="#505050"
     inkscape:document-units="mm"
     showguides="false"
     inkscape:zoom="2"
     inkscape:cx="85.25"
     inkscape:cy="44.5"
     inkscape:window-width="1366"
     inkscape:window-height="745"
     inkscape:window-x="-8"
     inkscape:window-y="-8"
     inkscape:window-maximized="1"
     inkscape:current-layer="g1"><sodipodi:guide
       position="50.006237,-98.230835"
       orientation="1,0"
       id="guide40"
       inkscape:locked="false" /><sodipodi:guide
       position="186.26474,-120.4313"
       orientation="1,0"
       id="guide41"
       inkscape:locked="false" /></sodipodi:namedview><defs
     id="defs1" /><g
     id="g1"
     inkscape:label="artboard"><rect
       id="Rectangle"
       fill="#ff5e5b"
       x="-1.3877788e-17"
       y="0"
       width="58.998367"
       height="7.9369998"
       rx="2.1165333"
       style="stroke-width:0.264567" /><g
       id="Group"
       transform="matrix(0.26456666,0,0,0.26456666,6.3495999,1.8519672)"
       fill-rule="nonzero"><path
         d="m 17.417931,0 h 1.607617 C 22.126324,0 24.64,2.513676 24.64,5.6144524 v 0.3300141 c 0,3.1007765 -2.513676,5.6144525 -5.614452,5.6144525 h -1.607617 v 1.689795 c 0,1.431128 -1.160158,2.591286 -2.591286,2.591286 H 2.5912857 C 1.1601581,15.84 0,14.679842 0,13.248714 V 1.2956429 C 0,0.58007907 0.58007907,0 1.2956429,0 Z m 0,2.9967568 v 5.5654054 h 1.465573 c 1.536844,0 2.782703,-1.2458585 2.782703,-2.7827027 0,-1.5368443 -1.245859,-2.7827027 -2.782703,-2.7827027 z"
         id="Rectangle-2"
         fill="#ffffff" /><path
         d="M 8.36,5.2768458 C 8.7602942,4.1056152 9.7089414,3.52 11.205941,3.52 c 2.2455,0 3.077965,2.7936503 1.900934,4.62 C 12.322188,9.3575665 10.739896,10.897567 8.36,12.76 5.9801039,10.897567 4.3978123,9.3575665 3.613125,8.14 2.4360941,6.3136503 3.2685587,3.52 5.5140587,3.52 7.0110586,3.52 7.9597058,4.1056152 8.36,5.2768458 Z"
         id="Path-2"
         fill="#ff5e5b" /></g><path
       d="m 18.536464,4.6386592 c 0.01481,0.019758 0.02715,0.04383 0.03704,0.072227 0.0099,0.028395 0.01481,0.05494 0.01481,0.079633 0,0.066671 -0.02532,0.1222289 -0.07593,0.1666771 -0.05062,0.044448 -0.109264,0.066671 -0.175935,0.066671 -0.0321,0 -0.06297,-0.00742 -0.0926,-0.022231 -0.02963,-0.014811 -0.05432,-0.035806 -0.07408,-0.062967 L 17.366015,3.8793449 17.01414,4.2164004 v 0.5815189 c 0,0.066671 -0.02161,0.1209951 -0.06482,0.1629728 -0.04321,0.041978 -0.09939,0.062966 -0.168529,0.062966 -0.06667,0 -0.121613,-0.021613 -0.164825,-0.064819 -0.04321,-0.043211 -0.06482,-0.09692 -0.06482,-0.1611206 V 2.657045 c 0,-0.0642 0.02223,-0.1179064 0.06667,-0.1611207 0.04445,-0.043211 0.10124,-0.064819 0.170382,-0.064819 0.06667,0 0.120995,0.020995 0.162972,0.062967 0.04198,0.041978 0.06297,0.096302 0.06297,0.1629728 V 3.6645155 L 18.1994,2.4977764 c 0.0568,-0.056795 0.117291,-0.085189 0.181492,-0.085189 0.05679,0 0.104947,0.023468 0.144454,0.070375 0.03951,0.046916 0.05926,0.096302 0.05926,0.1481557 0,0.051857 -0.02223,0.1000063 -0.06667,0.1444544 L 17.710478,3.545991 Z m 2.307549,-0.6037416 c 0,0.1975448 -0.04444,0.3747135 -0.133342,0.5315144 -0.08889,0.1568009 -0.210504,0.2784115 -0.364837,0.3648373 -0.15433,0.086426 -0.324093,0.1296374 -0.509289,0.1296374 -0.187669,0 -0.358047,-0.043211 -0.511144,-0.1296374 C 19.172305,4.8448435 19.05131,4.7232329 18.962416,4.566432 18.87352,4.4096311 18.829074,4.2324624 18.829074,4.0349176 c 0,-0.1975448 0.04445,-0.3747134 0.133342,-0.5315143 0.08889,-0.1568009 0.209889,-0.2790298 0.362985,-0.3666895 0.153097,-0.08766 0.323475,-0.1314895 0.511144,-0.1314895 0.185196,0 0.354959,0.04383 0.509289,0.1314895 0.154333,0.08766 0.275944,0.2098886 0.364837,0.3666895 0.0889,0.1568009 0.133342,0.3339695 0.133342,0.5315143 z m -0.44447,0 c 0,-0.120995 -0.02532,-0.2290252 -0.07593,-0.3240934 -0.05062,-0.095068 -0.118527,-0.1685291 -0.203716,-0.2203858 -0.08519,-0.051854 -0.179642,-0.077781 -0.28335,-0.077781 -0.10371,0 -0.198163,0.025941 -0.283352,0.077781 -0.08519,0.051857 -0.153097,0.1253176 -0.203717,0.2203858 -0.05062,0.095068 -0.07593,0.2030984 -0.07593,0.3240934 0,0.1209951 0.02532,0.2284098 0.07593,0.3222414 0.05062,0.093834 0.118528,0.166677 0.203717,0.2185336 0.08519,0.051854 0.179642,0.077781 0.283352,0.077781 0.103708,0 0.19816,-0.025941 0.28335,-0.077781 0.08519,-0.051857 0.153096,-0.1246993 0.203716,-0.2185336 0.05062,-0.093832 0.07593,-0.2012463 0.07593,-0.3222414 z m 0.985245,0.074079 c -0.0642,0 -0.117909,-0.020994 -0.161121,-0.062966 -0.04321,-0.041981 -0.06482,-0.095068 -0.06482,-0.1592714 0,-0.061733 0.02161,-0.1135865 0.06482,-0.1555643 0.04321,-0.041978 0.09692,-0.062966 0.161121,-0.062966 h 0.644485 c 0.0642,0 0.117909,0.021613 0.161121,0.064819 0.04321,0.043211 0.06482,0.09692 0.06482,0.1611206 0,0.061733 -0.02161,0.1129711 -0.06482,0.1537122 -0.04321,0.040744 -0.09692,0.061117 -0.161121,0.061117 z m 2.248286,-1.4334223 c -0.08395,0 -0.143217,0.024086 -0.177787,0.072227 -0.03457,0.04815 -0.05186,0.1006216 -0.05186,0.1574163 v 0.1740855 h 0.337058 c 0.05926,0 0.108651,0.01914 0.148159,0.05741 0.03951,0.038274 0.05926,0.087041 0.05926,0.1463037 0,0.059265 -0.01976,0.108033 -0.05926,0.1463065 -0.03951,0.038273 -0.0889,0.05741 -0.148159,0.05741 h -0.337058 v 1.3111935 c 0,0.0642 -0.02097,0.1179092 -0.06297,0.1611207 -0.04198,0.043214 -0.09507,0.064819 -0.159268,0.064819 -0.0642,0 -0.117291,-0.021613 -0.159269,-0.064819 -0.04198,-0.043211 -0.06297,-0.09692 -0.06297,-0.1611207 V 3.4867342 h -0.200012 c -0.05926,0 -0.108651,-0.01914 -0.148159,-0.05741 -0.03951,-0.038273 -0.05926,-0.087041 -0.05926,-0.1463065 0,-0.059262 0.01976,-0.1080302 0.05926,-0.1463037 0.03951,-0.038273 0.08889,-0.05741 0.148159,-0.05741 H 22.95896 V 2.9089223 c 0,-0.1851981 0.06358,-0.3358243 0.190752,-0.4518813 0.12717,-0.1160571 0.310511,-0.1740827 0.550033,-0.1740827 0.09137,0 0.171,0.018521 0.238904,0.055558 0.06791,0.03704 0.101859,0.093832 0.101859,0.1703813 0,0.059262 -0.01728,0.1074119 -0.05185,0.1444515 -0.03457,0.03704 -0.07655,0.055561 -0.125936,0.055561 -0.01237,0 -0.02532,-0.00112 -0.03889,-0.00371 -0.01357,-0.00253 -0.02777,-0.00495 -0.0426,-0.00742 -0.05926,-0.014811 -0.108649,-0.022231 -0.148159,-0.022231 z m 1.011175,2.1223531 c 0,0.0642 -0.02097,0.1179092 -0.06297,0.1611207 -0.04198,0.043214 -0.09507,0.064819 -0.159269,0.064819 -0.0642,0 -0.117291,-0.021613 -0.159271,-0.064819 -0.04198,-0.043211 -0.06297,-0.09692 -0.06297,-0.1611207 V 3.2682033 c 0,-0.064203 0.02097,-0.1179091 0.06297,-0.1611206 0.04198,-0.043214 0.09507,-0.064819 0.159271,-0.064819 0.0642,0 0.117288,0.021613 0.159269,0.064819 0.04198,0.043211 0.06297,0.096917 0.06297,0.1611206 z M 24.41831,2.8015078 c -0.08396,0 -0.143218,-0.013575 -0.17779,-0.040744 -0.03457,-0.02715 -0.05185,-0.075313 -0.05185,-0.1444516 v -0.070375 c 0,-0.069141 0.01852,-0.1172908 0.05556,-0.1444543 0.03704,-0.02715 0.0963,-0.040744 0.17779,-0.040744 0.08643,0 0.146922,0.013575 0.181491,0.040744 0.03457,0.027178 0.05186,0.075313 0.05186,0.1444543 v 0.070375 c 0,0.071609 -0.0179,0.1203768 -0.05371,0.1463037 -0.0358,0.025941 -0.09692,0.038892 -0.183343,0.038892 z"
       id="SupportmeonKo-f-4"
       fill="#ffffff"
       fill-rule="nonzero"
       sodipodi:nodetypes="cssssscccssssssssssccssscccsssssssssssssssssssssssssssssssssssssssscssssscssssscssssscsssssssscsssssssssssssssssssssss"
       style="stroke-width:0.264567" /><g
       id="g40"
       transform="matrix(0.06961582,0,0,0.06961582,32.802612,8.9051161)"><path
         id="path23"
         style="font-weight:bold;font-size:73.8625px;line-height:1.25;font-family:'KFGQPC KSA Regular';-inkscape-font-specification:'KFGQPC KSA Regular, Bold';text-align:center;letter-spacing:7.33588px;text-anchor:middle;fill:#ffffff;stroke-width:0.281068"
         d="m -21.558373,-106.73878 c -0.09918,-0.005 -0.21193,0.0926 -0.33816,0.29095 l -3.209778,5.04934 c -0.216394,0.36066 -0.372638,0.67315 -0.468813,0.93763 -0.07213,0.24044 -0.07213,0.660969 0,1.262063 0.601095,5.097282 1.190056,10.170761 1.767107,15.219956 0.456832,3.774874 0.901737,7.537463 1.334525,11.288294 0.19235,1.346451 -0.372785,2.019629 -1.695193,2.019629 h -10.783798 v 0.03623 h -12.6596 -4.436157 c -3.366109,0 -6.323689,0.721379 -8.872315,2.164006 -2.54864,1.442627 -4.147639,2.897024 -4.796825,4.363695 -0.360654,0.769401 -0.817205,1.935685 -1.370208,3.498531 -0.553007,1.538802 -0.889869,2.777115 -1.010089,3.714822 -0.09618,0.625139 0.132639,0.97364 0.685653,1.045772 l 10.206291,1.44267 c -1.89945,1.466671 -4.423743,2.656782 -7.573472,3.570446 -3.12569,0.937707 -6.732594,1.406988 -10.82003,1.406988 -6.27542,0 -10.158242,-1.707593 -11.648962,-5.12181 -1.49071,-3.390174 -0.74551,-7.946171 2.23592,-13.668591 l -1.153917,0.288204 c -2.476503,3.077604 -4.243943,6.311623 -5.30187,9.701796 -1.057926,3.414217 -1.237993,6.540193 -0.540727,9.377359 0.697274,2.86121 2.34393,5.217057 4.940653,7.068428 2.620774,1.851371 6.35954,2.777196 11.21638,2.777196 4.255744,0 8.259349,-0.793408 12.010179,-2.380297 3.750817,-1.58689 6.491748,-3.546581 8.222893,-5.878828 0.144265,-0.192351 0.408552,-0.720923 0.79325,-1.586499 0.408738,-0.865576 0.817635,-1.7914 1.22638,-2.777196 0.408744,-0.985795 0.769438,-1.91162 1.082003,-2.777196 0.312564,-0.865576 0.468813,-1.394696 0.468813,-1.587047 0,-0.817489 -0.504751,-1.64691 -1.514585,-2.488442 -0.985787,-0.841533 -2.536605,-1.658766 -4.652448,-2.452211 1.803276,0.312569 3.341903,0.517015 4.616217,0.61319 1.274314,0.09618 2.284362,0.144377 3.029718,0.144377 h 2.957255 15.707983 6.473353 c 1.514758,0 2.668855,-0.613337 3.4623,-1.83957 0.408745,-0.649182 0.757246,-1.298533 1.045771,-1.947715 0.216394,0.504919 0.444666,0.973651 0.685104,1.406439 0.88962,1.58689 2.464247,2.380846 4.724362,2.380846 h 6.6363949 13.2217367 2.4862462 1.264807 c 1.9235032,0 5.2777512,-0.349051 10.0624642,-1.046321 4.808757,-0.697269 10.362606,-2.259708 16.662077,-4.688131 l 5.085579,-8.764169 c 0.384701,-0.745357 0.15588,-0.998005 -0.685653,-0.757567 -2.019678,0.649182 -4.592156,1.358373 -7.717848,2.127775 -3.125692,0.769401 -5.024994,1.154466 -5.69822,1.154466 -2.716948,0 -5.289976,-0.913637 -7.718398,-2.740965 -2.428422,-1.851371 -3.762589,-3.173899 -4.003027,-3.967344 1.178145,-1.707109 3.389935,-3.257909 6.635846,-4.652448 3.269955,-1.39454 7.465811,-1.442741 12.587137,-0.144377 0.625139,0.168306 1.009654,0.06026 1.153917,-0.324436 0.168306,-0.384701 0.08409,-0.793592 -0.252522,-1.22638 -1.130058,-1.346452 -2.84929,-2.813037 -5.157493,-4.399926 -2.28416,-1.610937 -4.784611,-2.404344 -7.501558,-2.380297 -3.197824,0.04809 -5.962561,1.742944 -8.294808,5.08503 -2.332247,3.342086 -3.4985312,6.636493 -3.4985312,9.882404 0,1.009839 0.2526472,2.079719 0.7575672,3.209777 0.528963,1.130058 1.117925,2.151737 1.767107,3.065401 -1.154102,0.07213 -2.5364712,0.108145 -4.1474042,0.108145 H 6.8311678 4.3449216 -8.8768151 v -0.03623 h -4.6162169 c -2.404378,0 -3.811122,-1.454397 -4.219866,-4.363695 l -3.534763,-31.268847 c -0.02404,-0.1683 -0.09607,-0.30072 -0.216291,-0.3969 -0.03005,-0.024 -0.06136,-0.0369 -0.09442,-0.0384 z m 43.583696,1.45365 c -0.06312,0.003 -0.142623,0.0227 -0.238798,0.0587 l -13.5247632,5.265634 c -0.384701,0.168307 -0.648987,0.408769 -0.793249,0.721335 l -1.515134,3.786736 c -0.09617,0.336614 -0.01196,0.433021 0.252522,0.288754 l 13.8492002,-5.482479 c 0.312569,-0.21639 0.577404,-0.55271 0.793798,-1.00954 l 1.298294,-3.20978 c 0.108197,-0.28852 0.06747,-0.42842 -0.12187,-0.4194 z" /><path
         id="path15"
         style="font-weight:bold;font-size:73.8625px;line-height:1.25;font-family:'KFGQPC KSA Regular';-inkscape-font-specification:'KFGQPC KSA Regular, Bold';text-align:center;letter-spacing:7.33588px;text-anchor:middle;fill:#ffffff;stroke-width:0.281068"
         d="m 271.74075,-107.01601 c -0.0842,-0.018 -0.19275,0.075 -0.32499,0.27942 -0.43279,0.69727 -1.09378,1.89957 -1.9834,3.60668 -0.86557,1.70711 -1.55094,3.05347 -2.05586,4.039258 -0.12024,0.240438 -0.20445,0.444883 -0.25252,0.61319 -0.0481,0.168306 -0.0481,0.44478 0,0.829481 0.67323,4.977063 1.28656,9.617824 1.83957,13.921662 0.55301,4.303837 0.9619,7.850343 1.22638,10.639422 0.28853,2.765035 0.43258,5.073228 0.43258,6.924599 0,1.827328 -0.0482,3.594212 -0.14437,5.301321 -0.024,0.216391 0.0602,0.336621 0.25252,0.360668 0.19234,0.02404 0.39679,-0.09619 0.61319,-0.360668 1.77924,-2.067765 2.92115,-4.279555 3.42607,-6.635846 0.50492,-2.380335 0.75756,-4.676889 0.75756,-6.888917 0,-0.625139 -0.10804,-2.055709 -0.32443,-4.291781 -0.19235,-2.236071 -0.45719,-4.880579 -0.7938,-7.93414 -0.31257,-3.05356 -0.6849,-6.335779 -1.11769,-9.846172 -0.43278,-3.534435 -0.88988,-6.924697 -1.37075,-10.170607 -0.0361,-0.24044 -0.0959,-0.36954 -0.18006,-0.38757 z m -53.92284,1.73088 c -0.0631,0.003 -0.14262,0.0227 -0.2388,0.0587 l -13.52476,5.265634 c -0.3847,0.168307 -0.64899,0.408769 -0.79325,0.721335 l -1.51513,3.786736 c -0.0962,0.336614 -0.012,0.433021 0.25252,0.288754 l 13.8492,-5.482479 c 0.31257,-0.21639 0.57685,-0.55271 0.79325,-1.00954 l 1.29884,-3.20978 c 0.1082,-0.28852 0.0675,-0.42842 -0.12187,-0.4194 z m -87.01478,3.09285 -5.55439,6.347637 6.9246,5.806914 5.44624,-6.347641 z m 121.90622,9.016687 -3.13731,9.737479 c 2.5246,1.803284 4.71256,4.08765 6.56393,6.852685 1.85137,2.765035 2.77665,4.748553 2.77665,5.950742 h -14.96689 c -0.98579,0 -1.67116,-0.132417 -2.05586,-0.396899 -0.36065,-0.288526 -0.68533,-0.649215 -0.97386,-1.082003 -0.40874,-0.625138 -0.6974,-0.576936 -0.86571,0.144377 -0.33663,1.58689 -0.49288,3.402525 -0.46881,5.446247 0.0481,2.043721 0.20433,3.522493 0.46881,4.436157 0.31257,1.274321 1.22621,1.911484 2.74097,1.911484 h 16.26572 c 0.79345,0 1.32257,-0.372877 1.58705,-1.118235 l 3.20978,-10.098694 c 0,-4.087444 -1.08207,-8.198536 -3.24601,-12.334066 -2.1399,-4.159575 -4.77277,-7.309377 -7.89846,-9.449274 z m -35.36849,1.190149 c -3.19782,0.04809 -5.96256,1.742944 -8.2948,5.08503 -2.33225,3.342086 -3.49853,6.636493 -3.49853,9.882404 0,1.009839 0.25264,2.079719 0.75756,3.209777 0.52896,1.130058 1.11792,2.151737 1.76711,3.065401 -1.1541,0.07213 -2.53647,0.108145 -4.14741,0.108145 h -0.7389 -15.70798 v -0.03623 h -2.99349 c -1.22623,0 -2.20026,-0.216085 -2.92157,-0.648873 -0.72131,-0.456832 -1.40668,-1.045793 -2.05586,-1.767106 -0.74536,-0.865576 -1.44236,-1.923819 -2.09154,-3.174096 -0.62514,-1.250276 -1.34652,-2.404373 -2.16401,-3.462299 -0.86557,-1.106014 -1.77921,-1.574746 -2.74096,-1.40644 -0.93771,0.144264 -1.89954,0.649009 -2.88534,1.514585 -0.9858,0.865576 -2.12771,2.080062 -3.42607,3.642908 -1.29837,1.562846 -2.38043,2.860999 -3.24601,3.894882 -0.74536,0.937707 -1.98367,1.406439 -3.71482,1.406439 h -2.99349 v 0.03623 h -12.71065 -3.42607 c -1.34645,0 -2.16424,-0.360689 -2.45276,-1.082003 -0.28853,-0.745357 -0.43258,-1.658994 -0.43258,-2.740964 -0.024,-1.514758 -0.1803,-3.077747 -0.46882,-4.68868 -0.26448,-1.610934 -0.66119,-2.945101 -1.19015,-4.003027 l -4.61676,4.544303 c -0.28853,0.264481 -0.32454,0.553143 -0.10815,0.865712 0.40875,0.745358 0.74561,1.682821 1.01009,2.812879 0.26449,1.130057 0.3969,2.115722 0.3969,2.957255 0,0.88962 -0.50529,1.334525 -1.51513,1.334525 h -9.70399 -15.70799 -4.72491 c -4.063395,0 -7.201012,0.552948 -9.41304,1.658962 -2.187984,1.08197 -3.606366,2.356296 -4.255549,3.822967 -0.360656,0.769401 -0.81775,1.935686 -1.370756,3.498532 -0.553008,1.538802 -0.889322,2.777114 -1.00954,3.714822 -0.09618,0.625138 0.132096,0.97364 0.685103,1.045771 l 10.206841,2.200238 c -3.101648,2.332246 -9.232821,3.497982 -18.393503,3.497982 -6.275427,0 -10.158796,-1.586814 -11.64951,-4.760594 -1.490715,-3.149736 -0.74551,-7.585503 2.23592,-13.307923 l -1.153917,0.288205 c -2.47651,3.077604 -4.243943,6.311622 -5.30187,9.701795 -1.057927,3.414218 -1.237997,6.467617 -0.540727,9.16052 0.69727,2.692904 2.344473,4.821027 4.941202,6.383873 2.620772,1.586889 6.359535,2.380296 11.21638,2.380296 4.255749,0 8.2588,-0.649351 12.00963,-1.947715 3.75083,-1.27432 6.491741,-2.957538 8.222893,-5.049347 0.144263,-0.19235 0.409098,-0.648895 0.793798,-1.370208 0.408745,-0.69727 0.817087,-1.538878 1.225831,-2.524674 0.408745,-0.985794 0.769434,-1.911619 1.082004,-2.777195 0.31257,-0.865576 0.46881,-1.394149 0.46881,-1.586499 0,-0.817489 -0.56459,-1.695111 -1.694642,-2.632819 -1.106014,-0.913663 -2.596973,-1.827301 -4.472388,-2.740965 4.063398,1.20219 6.54002,1.80279 7.42964,1.80279 h 3.4623 15.70799 8.5863 c 2.11586,0 3.59408,-1.190111 4.43561,-3.570445 0.64918,2.380334 2.14014,3.570445 4.47239,3.570445 h 5.01312 15.75903 0.45015 c 2.18799,0 3.87121,-0.985665 5.04935,-2.957256 1.46667,0.769402 3.22192,1.55117 5.26564,2.344615 2.04372,0.793445 4.01505,1.502636 5.91451,2.127774 0.72131,0.240438 1.23824,0.08419 1.55081,-0.468813 l 1.33453,-2.524673 c 0.52896,0.504919 1.08191,0.877796 1.65896,1.118234 0.60109,0.240438 1.47872,0.360119 2.63282,0.360119 h 2.47197 v 5.49e-4 h 17.56402 0.70267 c 1.9235,0 5.27775,-0.349051 10.06247,-1.046321 4.80876,-0.697269 10.3626,-2.259708 16.66207,-4.688131 l 5.08558,-8.764169 c 0.3847,-0.745357 0.15588,-0.998005 -0.68565,-0.757567 -2.01968,0.649182 -4.59216,1.358373 -7.71785,2.127775 -3.12569,0.769401 -5.02499,1.154466 -5.69822,1.154466 -2.71695,0 -5.28998,-0.913637 -7.7184,-2.740965 -2.42842,-1.851371 -3.76258,-3.173899 -4.00302,-3.967344 1.17814,-1.707109 3.38993,-3.257909 6.63584,-4.652448 3.26996,-1.39454 7.46581,-1.442741 12.58714,-0.144377 0.62513,0.168306 1.00965,0.06026 1.15392,-0.324436 0.1683,-0.384701 0.0841,-0.793592 -0.25253,-1.22638 -1.13006,-1.346452 -2.84929,-2.813037 -5.15749,-4.399926 -2.28416,-1.610937 -4.78461,-2.404344 -7.50156,-2.380297 z m -45.80424,18.069066 c 0.72131,0 1.49089,0.72083 2.30838,2.163457 0.81749,1.418583 1.76714,2.825327 2.84911,4.219866 -2.11585,-0.793444 -4.02734,-1.502635 -5.73445,-2.127774 -1.68306,-0.625138 -3.10144,-1.226287 -4.25555,-1.803338 0.81749,-0.69727 1.68293,-1.274044 2.59659,-1.730876 0.93771,-0.480875 1.68291,-0.721335 2.23592,-0.721335 z m 101.35804,17.815995 c -1.08197,0 -2.09201,0.240459 -3.02971,0.721335 -0.91366,0.480875 -1.70707,1.094212 -2.3803,1.83957 -0.64919,0.745357 -1.16612,1.574778 -1.55082,2.488442 -0.3847,0.937707 -0.57696,1.851344 -0.57696,2.740964 0,0.384701 0.0964,0.757578 0.28876,1.118235 0.21639,0.3847 0.46849,0.74539 0.75702,1.082003 0.31256,0.336613 0.66162,0.636913 1.04632,0.901395 0.3847,0.288525 0.75702,0.528984 1.11768,0.721335 -0.57705,0.264481 -1.15383,0.56533 -1.73087,0.901944 -0.57706,0.336612 -1.04578,0.636913 -1.40644,0.901394 -0.0481,0.04809 -0.1323,0.204332 -0.25252,0.468813 -0.0962,0.288526 -0.21641,0.625389 -0.36067,1.010089 -0.12022,0.384701 -0.22827,0.769217 -0.32444,1.153917 -0.0962,0.408744 -0.15654,0.757247 -0.18061,1.045772 1.17815,-0.577051 2.28405,-1.117811 3.31793,-1.62273 1.03388,-0.480876 2.03173,-0.925781 2.99348,-1.334525 0.9858,-0.408745 1.97146,-0.781622 2.95726,-1.118235 0.98579,-0.336613 2.03185,-0.636913 3.13786,-0.901395 0.33661,-0.57705 0.66129,-1.23804 0.97386,-1.983397 0.33661,-0.721314 0.6491,-1.370664 0.93763,-1.947716 l -0.0362,0.07191 c 0.024,-0.192353 -0.0358,-0.276568 -0.18006,-0.252522 -0.69727,0.168307 -1.38263,0.336738 -2.05586,0.505045 -0.64918,0.168306 -1.34618,0.348925 -2.09154,0.541276 -1.5388,-0.216394 -2.80149,-0.613097 -3.78728,-1.190149 -0.9858,-0.57705 -1.80303,-1.226402 -2.45222,-1.947715 0.57706,-0.601095 1.20203,-1.033812 1.87526,-1.298294 0.67322,-0.264482 1.27438,-0.396899 1.80334,-0.396899 0.553,0 1.04611,0.108042 1.4789,0.324436 0.45683,0.240438 0.90119,0.516912 1.33397,0.829481 l 1.73143,-2.957255 c -0.0481,-0.264482 -0.16832,-0.540956 -0.36067,-0.829481 -0.19235,-0.288525 -0.445,-0.552811 -0.75757,-0.793249 -0.31256,-0.216394 -0.66107,-0.408652 -1.04577,-0.576959 -0.3847,-0.144262 -0.7814,-0.216839 -1.19015,-0.216839 z m -188.169706,18.682255 -3.606677,3.859199 -4.435608,-3.570445 -4.652448,5.048799 5.878279,4.760593 3.498531,-3.85865 4.472389,3.570445 4.652448,-5.013116 z" /></g></g></svg>
